<svg xmlns="http://www.w3.org/2000/svg" width="200" height="200">
  <g stroke="rgba(77,207,201,0.07)" stroke-width="1" fill="none" stroke-linecap="round">
    <path d="M 20,20 L 20,60 L 80,60"/>
    <path d="M 140,10 L 140,40 L 185,40"/>
    <path d="M 60,120 L 60,160 L 120,160 L 120,185"/>
    <path d="M 160,100 L 160,140 L 195,140"/>
    <path d="M 5,170 L 40,170 L 40,130"/>
    <path d="M 100,5 L 100,30 L 55,30"/>
    <path d="M 170,170 L 170,195"/>
    <path d="M 110,80 L 150,80 L 150,60"/>
  </g>
  <g fill="rgba(77,207,201,0.10)">
    <circle cx="20" cy="20" r="1.8"/>
    <circle cx="80" cy="60" r="1.8"/>
    <circle cx="140" cy="10" r="1.8"/>
    <circle cx="185" cy="40" r="1.8"/>
    <circle cx="60" cy="120" r="1.8"/>
    <circle cx="120" cy="185" r="1.8"/>
    <circle cx="160" cy="100" r="1.8"/>
    <circle cx="195" cy="140" r="1.8"/>
    <circle cx="5" cy="170" r="1.8"/>
    <circle cx="40" cy="130" r="1.8"/>
    <circle cx="100" cy="5" r="1.8"/>
    <circle cx="55" cy="30" r="1.8"/>
    <circle cx="110" cy="80" r="1.8"/>
    <circle cx="150" cy="60" r="1.8"/>
    <circle cx="170" cy="170" r="1.8"/>
    <circle cx="170" cy="195" r="1.8"/>
  </g>
</svg>