<svg viewBox="0 0 720 440" xmlns="http://www.w3.org/2000/svg" style="width:100%;max-width:720px;">
  <defs>
    <filter id="roughen-2" x="-2%" y="-2%" width="104%" height="104%">
      <feTurbulence type="turbulence" baseFrequency="0.03" numOctaves="2" result="noise" seed="2"/>
      <feDisplacementMap in="SourceGraphic" in2="noise" scale="0.4" xChannelSelector="R" yChannelSelector="G"/>
    </filter>
  </defs>
  <style>
    .source-link { cursor: pointer; }
    .source-link:hover text { fill: #eee0cc !important; }
    .source-link text { transition: fill 0.2s ease; }
  </style>
  <!-- Sticky note 1: OpenClaw Stars -->
  <g filter="url(#roughen-2)" transform="rotate(-2.5, 110, 110)">
    <path d="M 20,30 C 23,27 227,26 230,30 C 233,33 234,168 230,170 C 227,173 23,174 20,170 C 17,167 17,33 20,30 Z" fill="rgba(77,207,201,0.08)" stroke="#4DCFC9" stroke-width="2" stroke-linecap="round" stroke-linejoin="round"/>
    <text x="125" y="80" text-anchor="middle" font-family="'Inter', sans-serif" font-size="40" fill="#4DCFC9" font-weight="700">250K+</text>
    <text x="125" y="115" text-anchor="middle" font-family="'Inter', sans-serif" font-size="16" fill="#eee0cc">OpenClaw stars</text>
    <a class="source-link" href="https://www.star-history.com/blog/openclaw-surpasses-react-most-starred-software" target="_blank">
      <text x="125" y="155" text-anchor="middle" font-family="'Inter', sans-serif" font-size="12" fill="#4DCFC9" text-decoration="underline">star-history.com &#8599;</text>
    </a>
  </g>
  <!-- Sticky note 2: 1 in 5 Malicious -->
  <g filter="url(#roughen-2)" transform="rotate(1.5, 370, 100)">
    <path d="M 260,20 C 263,17 467,18 470,20 C 473,23 474,168 470,170 C 467,173 263,172 260,170 C 257,167 257,23 260,20 Z" fill="rgba(248,113,113,0.08)" stroke="#f87171" stroke-width="2" stroke-linecap="round" stroke-linejoin="round"/>
    <text x="365" y="70" text-anchor="middle" font-family="'Inter', sans-serif" font-size="40" fill="#f87171" font-weight="700">1 in 5</text>
    <text x="365" y="105" text-anchor="middle" font-family="'Inter', sans-serif" font-size="16" fill="#eee0cc">skills malicious</text>
    <a class="source-link" href="https://aikido.dev/blog/openclaw-security" target="_blank">
      <text x="365" y="145" text-anchor="middle" font-family="'Inter', sans-serif" font-size="12" fill="#4DCFC9" text-decoration="underline">aikido.dev audit &#8599;</text>
    </a>
  </g>
  <!-- Sticky note 3: ~20% Auto-Activation -->
  <g filter="url(#roughen-2)" transform="rotate(-1.0, 600, 110)">
    <path d="M 500,30 C 503,27 697,28 700,30 C 703,33 704,168 700,170 C 697,173 503,172 500,170 C 497,167 497,33 500,30 Z" fill="rgba(248,113,113,0.08)" stroke="#f87171" stroke-width="2" stroke-linecap="round" stroke-linejoin="round"/>
    <text x="600" y="80" text-anchor="middle" font-family="'Inter', sans-serif" font-size="40" fill="#f87171" font-weight="700">~20%</text>
    <text x="600" y="115" text-anchor="middle" font-family="'Inter', sans-serif" font-size="16" fill="#eee0cc">auto-activation</text>
    <a class="source-link" href="https://scottspence.com/posts/claude-code-skills" target="_blank">
      <text x="600" y="155" text-anchor="middle" font-family="'Inter', sans-serif" font-size="12" fill="#4DCFC9" text-decoration="underline">scottspence.com &#8599;</text>
    </a>
  </g>
  <!-- Sticky note 4: 6.60% Carousel Engagement -->
  <g filter="url(#roughen-2)" transform="rotate(2.0, 160, 320)">
    <path d="M 20,230 C 23,227 237,228 240,230 C 243,233 244,398 240,400 C 237,403 23,402 20,400 C 17,397 17,233 20,230 Z" fill="rgba(78,222,128,0.06)" stroke="#4ade80" stroke-width="2" stroke-linecap="round" stroke-linejoin="round"/>
    <text x="130" y="288" text-anchor="middle" font-family="'Inter', sans-serif" font-size="38" fill="#4ade80" font-weight="700">6.60%</text>
    <text x="130" y="322" text-anchor="middle" font-family="'Inter', sans-serif" font-size="16" fill="#eee0cc">carousel engage</text>
    <a class="source-link" href="https://www.socialinsider.io/social-media-benchmarks/linkedin" target="_blank">
      <text x="130" y="360" text-anchor="middle" font-family="'Inter', sans-serif" font-size="12" fill="#4DCFC9" text-decoration="underline">Socialinsider 2025 &#8599;</text>
    </a>
    <text x="130" y="378" text-anchor="middle" font-family="'Inter', sans-serif" font-size="12" fill="#8b949e">vs 2.2% text posts</text>
  </g>
  <!-- Sticky note 5: 65% AI Agent Task Failure -->
  <g filter="url(#roughen-2)" transform="rotate(-1.8, 480, 320)">
    <path d="M 270,235 C 273,232 487,231 490,235 C 493,238 494,398 490,400 C 487,403 273,404 270,400 C 267,397 267,238 270,235 Z" fill="rgba(248,113,113,0.06)" stroke="#f87171" stroke-width="2" stroke-linecap="round" stroke-linejoin="round" opacity="0.8"/>
    <text x="380" y="290" text-anchor="middle" font-family="'Inter', sans-serif" font-size="38" fill="#f87171" font-weight="700">65%</text>
    <text x="380" y="328" text-anchor="middle" font-family="'Inter', sans-serif" font-size="16" fill="#eee0cc">AI agent task</text>
    <text x="380" y="350" text-anchor="middle" font-family="'Inter', sans-serif" font-size="16" fill="#eee0cc">failure rate</text>
    <a class="source-link" href="https://www.salesforce.com/blog/why-generic-llm-agents-fall-short/" target="_blank">
      <text x="380" y="388" text-anchor="middle" font-family="'Inter', sans-serif" font-size="12" fill="#4DCFC9" text-decoration="underline">Salesforce CRMArena &#8599;</text>
    </a>
  </g>
  <!-- Sticky note 6: $2K/mo for Slop -->
  <g filter="url(#roughen-2)" transform="rotate(1.2, 620, 310)">
    <path d="M 520,230 C 523,227 697,228 700,230 C 703,233 704,398 700,400 C 697,403 523,404 520,400 C 517,397 517,233 520,230 Z" fill="rgba(250,204,21,0.06)" stroke="#facc15" stroke-width="2" stroke-linecap="round" stroke-linejoin="round"/>
    <text x="610" y="290" text-anchor="middle" font-family="'Inter', sans-serif" font-size="34" fill="#facc15" font-weight="700">$2K/mo</text>
    <text x="610" y="325" text-anchor="middle" font-family="'Inter', sans-serif" font-size="16" fill="#eee0cc">competitor pricing</text>
    <text x="610" y="350" text-anchor="middle" font-family="'Inter', sans-serif" font-size="16" fill="#eee0cc">for volume slop</text>
    <a class="source-link" href="https://www.getskott.ai" target="_blank">
      <text x="610" y="382" text-anchor="middle" font-family="'Inter', sans-serif" font-size="12" fill="#4DCFC9" text-decoration="underline">getskott.ai &#8599;</text>
    </a>
    <a class="source-link" href="https://www.artisan.co" target="_blank">
      <text x="610" y="398" text-anchor="middle" font-family="'Inter', sans-serif" font-size="12" fill="#4DCFC9" text-decoration="underline">artisan.co &#8599;</text>
    </a>
  </g>
</svg>