<svg viewBox="0 0 720 420" xmlns="http://www.w3.org/2000/svg" style="width:100%;max-width:720px;">
  <defs>
    <filter id="roughen-5" x="-2%" y="-2%" width="104%" height="104%">
      <feTurbulence type="turbulence" baseFrequency="0.03" numOctaves="2" result="noise" seed="5"/>
      <feDisplacementMap in="SourceGraphic" in2="noise" scale="0.4" xChannelSelector="R" yChannelSelector="G"/>
    </filter>
    <filter id="glow-5">
      <feGaussianBlur stdDeviation="3" result="blur"/>
      <feMerge><feMergeNode in="blur"/><feMergeNode in="SourceGraphic"/></feMerge>
    </filter>
    <marker id="arrow-5a" viewBox="0 0 12 10" refX="10" refY="5" markerWidth="8" markerHeight="6" orient="auto-start-reverse" fill="none" stroke="#f87171" stroke-width="1.5" stroke-linecap="round" stroke-linejoin="round">
      <path d="M 1,1 L 10,5 L 1,9"/>
    </marker>
  </defs>
  <!-- Quadrant lines -->
  <line x1="360" y1="40" x2="360" y2="340" stroke="#eee0cc" stroke-width="1" opacity="0.2"/>
  <line x1="30" y1="190" x2="690" y2="190" stroke="#eee0cc" stroke-width="1" opacity="0.2"/>
  <!-- Top-left: PUSH -->
  <g filter="url(#roughen-5)" transform="rotate(-0.3, 180, 110)">
    <path d="M 40,50 C 43,47 317,46 320,50 C 323,53 324,178 320,180 C 317,183 43,184 40,180 C 37,177 37,53 40,50 Z" fill="rgba(78,222,128,0.06)" stroke="#4ade80" stroke-width="2" stroke-linecap="round" stroke-linejoin="round"/>
    <text x="180" y="78" text-anchor="middle" font-family="'Inter', sans-serif" font-size="22" fill="#4ade80" font-weight="700">PUSH</text>
    <text x="180" y="105" text-anchor="middle" font-family="'Inter', sans-serif" font-size="14" fill="#eee0cc">Slop at $2K/mo</text>
    <text x="180" y="128" text-anchor="middle" font-family="'Inter', sans-serif" font-size="14" fill="#eee0cc">20% auto-activation</text>
    <text x="180" y="151" text-anchor="middle" font-family="'Inter', sans-serif" font-size="14" fill="#eee0cc">1/5 skills malicious</text>
    <text x="180" y="174" text-anchor="middle" font-family="'Inter', sans-serif" font-size="14" fill="#eee0cc">Content treadmill</text>
  </g>
  <!-- Top-right: PULL -->
  <g filter="url(#roughen-5)" transform="rotate(0.5, 540, 110)">
    <path d="M 400,50 C 403,47 677,46 680,50 C 683,53 684,178 680,180 C 677,183 403,184 400,180 C 397,177 397,53 400,50 Z" fill="rgba(77,207,201,0.06)" stroke="#4DCFC9" stroke-width="2" stroke-linecap="round" stroke-linejoin="round"/>
    <text x="540" y="78" text-anchor="middle" font-family="'Inter', sans-serif" font-size="22" fill="#4DCFC9" font-weight="700">PULL</text>
    <text x="540" y="105" text-anchor="middle" font-family="'Inter', sans-serif" font-size="14" fill="#eee0cc">Ambient content</text>
    <text x="540" y="128" text-anchor="middle" font-family="'Inter', sans-serif" font-size="14" fill="#eee0cc">6.60% carousels</text>
    <text x="540" y="151" text-anchor="middle" font-family="'Inter', sans-serif" font-size="14" fill="#eee0cc">4.2x revenue/hour</text>
    <text x="540" y="174" text-anchor="middle" font-family="'Inter', sans-serif" font-size="14" fill="#eee0cc">Open-source ownership</text>
  </g>
  <!-- Bottom-left: ANXIETY -->
  <g filter="url(#roughen-5)" transform="rotate(0.4, 180, 290)">
    <path d="M 25,210 C 28,207 332,206 335,210 C 338,213 339,348 335,350 C 332,353 28,354 25,350 C 22,347 22,213 25,210 Z" fill="rgba(248,113,113,0.08)" stroke="#f87171" stroke-width="2.5" stroke-linecap="round" stroke-linejoin="round"/>
    <text x="180" y="242" text-anchor="middle" font-family="'Inter', sans-serif" font-size="24" fill="#f87171" font-weight="700">ANXIETY</text>
    <text x="180" y="272" text-anchor="middle" font-family="'Inter', sans-serif" font-size="14" fill="#eee0cc">Burned before by AI tools</text>
    <text x="180" y="296" text-anchor="middle" font-family="'Inter', sans-serif" font-size="14" fill="#eee0cc">Security fears</text>
    <text x="180" y="320" text-anchor="middle" font-family="'Inter', sans-serif" font-size="14" fill="#eee0cc">Complexity overwhelm</text>
    <text x="180" y="344" text-anchor="middle" font-family="'Inter', sans-serif" font-size="14" fill="#eee0cc">Brand risk from slop</text>
  </g>
  <!-- Bottom-right: HABIT -->
  <g filter="url(#roughen-5)" transform="rotate(-0.6, 540, 280)">
    <path d="M 400,215 C 403,212 677,211 680,215 C 683,218 684,338 680,340 C 677,343 403,344 400,340 C 397,337 397,218 400,215 Z" fill="rgba(136,136,136,0.05)" stroke="#888888" stroke-width="2" stroke-linecap="round" stroke-linejoin="round"/>
    <text x="540" y="245" text-anchor="middle" font-family="'Inter', sans-serif" font-size="22" fill="#888888" font-weight="700">HABIT</text>
    <text x="540" y="278" text-anchor="middle" font-family="'Inter', sans-serif" font-size="14" fill="#8b949e">Manual works (barely)</text>
    <text x="540" y="305" text-anchor="middle" font-family="'Inter', sans-serif" font-size="14" fill="#8b949e">ChatGPT handles 80%</text>
    <text x="540" y="328" text-anchor="middle" font-family="'Inter', sans-serif" font-size="14" fill="#8b949e">Free alternatives exist</text>
  </g>
  <!-- Arrow from ANXIETY to callout -->
  <path d="M 335,280 C 380,280 420,395 460,395" stroke="#f87171" stroke-width="2" fill="none" stroke-dasharray="6,4" marker-end="url(#arrow-5a)"/>
  <g filter="url(#glow-5)">
    <path d="M 460,380 C 463,377 697,376 700,380 C 703,383 704,413 700,415 C 697,418 463,419 460,415 C 457,412 457,383 460,380 Z" fill="rgba(77,207,201,0.15)" stroke="#4DCFC9" stroke-width="2" stroke-linecap="round" stroke-linejoin="round"/>
    <text x="580" y="403" text-anchor="middle" font-family="'Inter', sans-serif" font-size="17" fill="#4DCFC9" font-weight="700">Key unlock: run it on itself</text>
  </g>
</svg>