<svg viewBox="0 0 720 350" xmlns="http://www.w3.org/2000/svg" style="width:100%;max-width:720px;">
  <defs>
    <filter id="roughen-11" x="-2%" y="-2%" width="104%" height="104%">
      <feTurbulence type="turbulence" baseFrequency="0.03" numOctaves="2" result="noise" seed="11"/>
      <feDisplacementMap in="SourceGraphic" in2="noise" scale="1.2" xChannelSelector="R" yChannelSelector="G"/>
    </filter>
  </defs>
  <!-- Gate 1 -->
  <g filter="url(#roughen-11)" transform="rotate(-0.5, 140, 160)">
    <path d="M 50,40 C 53,37 227,36 230,40 C 233,43 234,278 230,280 C 227,283 53,284 50,280 C 47,277 47,43 50,40 Z" fill="rgba(232,128,114,0.04)" stroke="#eee0cc" stroke-width="2" stroke-linecap="round" stroke-linejoin="round"/>
    <!-- Gate bar -->
    <path d="M 70,160 L 210,160" stroke="#e88072" stroke-width="3" stroke-linecap="round" stroke-dasharray="8,4" opacity="0.8"/>
    <text x="140" y="70" text-anchor="middle" font-family="'Caveat', cursive" font-size="18" fill="#eee0cc" font-weight="700">Gate 1</text>
    <text x="140" y="95" text-anchor="middle" font-family="'Caveat', cursive" font-size="14" fill="#8b949e">Week 1</text>
    <!-- Threshold -->
    <text x="140" y="140" text-anchor="middle" font-family="'Caveat', cursive" font-size="16" fill="#e88072">< 5 enrollments</text>
    <text x="140" y="200" text-anchor="middle" font-family="'Caveat', cursive" font-size="15" fill="#eee0cc">→ contingency</text>
    <!-- Status light -->
    <circle cx="140" cy="245" r="16" fill="rgba(232,128,114,0.3)" stroke="#e88072" stroke-width="2"/>
    <text x="140" y="250" text-anchor="middle" font-family="'Caveat', cursive" font-size="11" fill="#e88072">YELLOW</text>
  </g>
  <!-- Gate 2 -->
  <g filter="url(#roughen-11)" transform="rotate(0.3, 380, 160)">
    <path d="M 280,40 C 283,37 477,36 480,40 C 483,43 484,278 480,280 C 477,283 283,284 280,280 C 277,277 277,43 280,40 Z" fill="rgba(248,113,113,0.04)" stroke="#f87171" stroke-width="2" stroke-linecap="round" stroke-linejoin="round"/>
    <path d="M 300,160 L 460,160" stroke="#f87171" stroke-width="3" stroke-linecap="round" stroke-dasharray="8,4" opacity="0.8"/>
    <text x="380" y="70" text-anchor="middle" font-family="'Caveat', cursive" font-size="18" fill="#eee0cc" font-weight="700">Gate 2</text>
    <text x="380" y="95" text-anchor="middle" font-family="'Caveat', cursive" font-size="14" fill="#8b949e">Month 1</text>
    <text x="380" y="140" text-anchor="middle" font-family="'Caveat', cursive" font-size="16" fill="#f87171">< 15 enrollments</text>
    <text x="380" y="200" text-anchor="middle" font-family="'Caveat', cursive" font-size="15" fill="#f87171" font-weight="700">→ KILL cohort</text>
    <circle cx="380" cy="245" r="16" fill="rgba(248,113,113,0.3)" stroke="#f87171" stroke-width="2"/>
    <text x="380" y="250" text-anchor="middle" font-family="'Caveat', cursive" font-size="11" fill="#f87171">RED</text>
  </g>
  <!-- Gate 3 -->
  <g filter="url(#roughen-11)" transform="rotate(-0.4, 610, 160)">
    <path d="M 510,40 C 513,37 707,36 710,40 C 713,43 714,278 710,280 C 707,283 513,284 510,280 C 507,277 507,43 510,40 Z" fill="rgba(248,113,113,0.04)" stroke="#f87171" stroke-width="2" stroke-linecap="round" stroke-linejoin="round"/>
    <path d="M 530,160 L 690,160" stroke="#f87171" stroke-width="3" stroke-linecap="round" stroke-dasharray="8,4" opacity="0.8"/>
    <text x="610" y="70" text-anchor="middle" font-family="'Caveat', cursive" font-size="18" fill="#eee0cc" font-weight="700">Gate 3</text>
    <text x="610" y="95" text-anchor="middle" font-family="'Caveat', cursive" font-size="14" fill="#8b949e">Month 3</text>
    <text x="610" y="140" text-anchor="middle" font-family="'Caveat', cursive" font-size="16" fill="#f87171">< $15K revenue</text>
    <text x="610" y="200" text-anchor="middle" font-family="'Caveat', cursive" font-size="15" fill="#f87171" font-weight="700">→ KILL business line</text>
    <circle cx="610" cy="245" r="16" fill="rgba(248,113,113,0.3)" stroke="#f87171" stroke-width="2"/>
    <text x="610" y="250" text-anchor="middle" font-family="'Caveat', cursive" font-size="11" fill="#f87171">RED</text>
  </g>
  <!-- Pivot note -->
  <text x="360" y="325" text-anchor="middle" font-family="'Caveat', cursive" font-size="15" fill="#8b949e">Pivot trigger: enterprise demand > individual → enterprise-first model</text>
</svg>
